<svg xmlns="http://www.w3.org/2000/svg" xmlns:xlink="http://www.w3.org/1999/xlink" width="680" zoomAndPan="magnify" viewBox="0 0 510 149.999998" height="200" preserveAspectRatio="xMidYMid meet" version="1.0"><defs><g/></defs><g fill="#ff8d55" fill-opacity="1"><g transform="translate(-0.895006, 108.0233)"><g><path d="M 43.355469 -63.164062 L 43.355469 -34.128906 L 17.5 -34.128906 L 17.5 -63.164062 L 5.570312 -63.164062 L 5.570312 0.558594 L 17.5 0.558594 L 17.5 -22.273438 L 43.355469 -22.273438 L 43.355469 0.558594 L 55.210938 0.558594 L 55.210938 -63.164062 Z M 43.355469 -63.164062 "/></g></g></g><g fill="#ff8d55" fill-opacity="1"><g transform="translate(59.879721, 108.0233)"><g><path d="M 42.480469 -51.867188 L 42.480469 -63.722656 L 5.570312 -63.722656 L 5.570312 0 L 42.480469 0 L 42.480469 -11.851562 L 17.5 -11.851562 L 17.5 -26.015625 L 32.378906 -26.015625 L 32.378906 -37.867188 L 17.5 -37.867188 L 17.5 -51.867188 Z M 42.480469 -51.867188 "/></g></g></g><g fill="#ff8d55" fill-opacity="1"><g transform="translate(107.926756, 108.0233)"><g><path d="M 55.289062 -39.777344 C 55.289062 -52.980469 49.242188 -63.640625 33.015625 -63.640625 L 5.570312 -63.640625 L 5.570312 0 L 17.5 0 L 17.5 -15.832031 L 33.015625 -15.832031 C 34.445312 -15.832031 35.796875 -15.910156 37.070312 -16.070312 L 42.800781 0 L 55.289062 0 L 48.050781 -20.367188 C 53.300781 -24.742188 55.289062 -31.820312 55.289062 -39.777344 Z M 17.5 -27.765625 L 17.5 -51.789062 L 33.015625 -51.789062 C 38.902344 -51.789062 40.492188 -49.800781 41.050781 -49.164062 C 42.5625 -47.253906 43.355469 -43.914062 43.355469 -39.777344 C 43.355469 -35.402344 42.5625 -32.058594 41.128906 -30.308594 C 39.777344 -28.558594 37.070312 -27.765625 33.015625 -27.765625 Z M 17.5 -27.765625 "/></g></g></g><g fill="#ff8d55" fill-opacity="1"><g transform="translate(168.781036, 108.0233)"><g><path d="M 35.320312 -64.4375 C 17.34375 -64.4375 2.785156 -49.878906 2.785156 -31.902344 C 2.785156 -13.921875 17.34375 0.636719 35.320312 0.636719 C 53.300781 0.636719 67.859375 -13.921875 67.859375 -31.902344 C 67.859375 -49.878906 53.300781 -64.4375 35.320312 -64.4375 Z M 35.320312 -52.265625 C 46.617188 -52.265625 54.574219 -43.117188 54.574219 -31.902344 C 54.574219 -20.683594 46.617188 -11.535156 35.320312 -11.535156 C 24.105469 -11.535156 16.148438 -20.683594 16.148438 -31.902344 C 16.148438 -43.117188 24.105469 -52.265625 35.320312 -52.265625 Z M 35.320312 -52.265625 "/></g></g></g><g fill="#ffffff" fill-opacity="1"><g transform="translate(3.747249, 106.241305)"><g><path d="M 43.355469 -63.164062 L 43.355469 -34.128906 L 17.5 -34.128906 L 17.5 -63.164062 L 5.570312 -63.164062 L 5.570312 0.558594 L 17.5 0.558594 L 17.5 -22.273438 L 43.355469 -22.273438 L 43.355469 0.558594 L 55.210938 0.558594 L 55.210938 -63.164062 Z M 43.355469 -63.164062 "/></g></g></g><g fill="#ffffff" fill-opacity="1"><g transform="translate(64.521976, 106.241305)"><g><path d="M 42.480469 -51.867188 L 42.480469 -63.722656 L 5.570312 -63.722656 L 5.570312 0 L 42.480469 0 L 42.480469 -11.851562 L 17.5 -11.851562 L 17.5 -26.015625 L 32.378906 -26.015625 L 32.378906 -37.867188 L 17.5 -37.867188 L 17.5 -51.867188 Z M 42.480469 -51.867188 "/></g></g></g><g fill="#ffffff" fill-opacity="1"><g transform="translate(112.56901, 106.241305)"><g><path d="M 55.289062 -39.777344 C 55.289062 -52.980469 49.242188 -63.640625 33.015625 -63.640625 L 5.570312 -63.640625 L 5.570312 0 L 17.5 0 L 17.5 -15.832031 L 33.015625 -15.832031 C 34.445312 -15.832031 35.796875 -15.910156 37.070312 -16.070312 L 42.800781 0 L 55.289062 0 L 48.050781 -20.367188 C 53.300781 -24.742188 55.289062 -31.820312 55.289062 -39.777344 Z M 17.5 -27.765625 L 17.5 -51.789062 L 33.015625 -51.789062 C 38.902344 -51.789062 40.492188 -49.800781 41.050781 -49.164062 C 42.5625 -47.253906 43.355469 -43.914062 43.355469 -39.777344 C 43.355469 -35.402344 42.5625 -32.058594 41.128906 -30.308594 C 39.777344 -28.558594 37.070312 -27.765625 33.015625 -27.765625 Z M 17.5 -27.765625 "/></g></g></g><g fill="#ffffff" fill-opacity="1"><g transform="translate(173.42329, 106.241305)"><g><path d="M 35.320312 -64.4375 C 17.34375 -64.4375 2.785156 -49.878906 2.785156 -31.902344 C 2.785156 -13.921875 17.34375 0.636719 35.320312 0.636719 C 53.300781 0.636719 67.859375 -13.921875 67.859375 -31.902344 C 67.859375 -49.878906 53.300781 -64.4375 35.320312 -64.4375 Z M 35.320312 -52.265625 C 46.617188 -52.265625 54.574219 -43.117188 54.574219 -31.902344 C 54.574219 -20.683594 46.617188 -11.535156 35.320312 -11.535156 C 24.105469 -11.535156 16.148438 -20.683594 16.148438 -31.902344 C 16.148438 -43.117188 24.105469 -52.265625 35.320312 -52.265625 Z M 35.320312 -52.265625 "/></g></g></g><g fill="#ff8d55" fill-opacity="1"><g transform="translate(239.415733, 108.0233)"><g><path d="M 43.117188 0 L 55.527344 0 L 36.832031 -63.484375 L 36.832031 -63.640625 L 24.34375 -63.640625 L 5.570312 0 L 18.058594 0 L 22.753906 -15.832031 L 38.425781 -15.832031 Z M 26.253906 -27.683594 L 30.628906 -42.480469 L 34.921875 -27.683594 Z M 26.253906 -27.683594 "/></g></g></g><g fill="#ff8d55" fill-opacity="1"><g transform="translate(300.508657, 108.0233)"><g><path d="M 43.355469 -63.640625 L 43.355469 -20.683594 L 18.617188 -63.640625 L 5.570312 -63.640625 L 5.570312 0 L 17.5 0 L 17.5 -39.855469 L 40.414062 0 L 55.289062 0 L 55.289062 -63.640625 Z M 43.355469 -63.640625 "/></g></g></g><g fill="#ff8d55" fill-opacity="1"><g transform="translate(361.362937, 108.0233)"><g><path d="M 5.570312 -63.640625 L 17.5 -63.640625 L 17.5 -0.238281 L 5.570312 -0.238281 Z M 5.570312 -63.640625 "/></g></g></g><g fill="#ff8d55" fill-opacity="1"><g transform="translate(384.431876, 108.0233)"><g><path d="M 58.550781 -63.640625 L 45.503906 -63.640625 L 32.058594 -31.582031 L 18.695312 -63.640625 L 5.570312 -63.640625 L 5.570312 0 L 17.5 0 L 17.5 -35.164062 L 25.535156 -15.988281 L 38.582031 -15.988281 L 46.699219 -35.320312 L 46.699219 0 L 58.550781 0 Z M 58.550781 -63.640625 "/></g></g></g><g fill="#ff8d55" fill-opacity="1"><g transform="translate(448.547628, 108.0233)"><g><path d="M 42.480469 -51.867188 L 42.480469 -63.722656 L 5.570312 -63.722656 L 5.570312 0 L 42.480469 0 L 42.480469 -11.851562 L 17.5 -11.851562 L 17.5 -26.015625 L 32.378906 -26.015625 L 32.378906 -37.867188 L 17.5 -37.867188 L 17.5 -51.867188 Z M 42.480469 -51.867188 "/></g></g></g><g fill="#5ce1e6" fill-opacity="1"><g transform="translate(244.057987, 106.241305)"><g><path d="M 43.117188 0 L 55.527344 0 L 36.832031 -63.484375 L 36.832031 -63.640625 L 24.34375 -63.640625 L 5.570312 0 L 18.058594 0 L 22.753906 -15.832031 L 38.425781 -15.832031 Z M 26.253906 -27.683594 L 30.628906 -42.480469 L 34.921875 -27.683594 Z M 26.253906 -27.683594 "/></g></g></g><g fill="#5ce1e6" fill-opacity="1"><g transform="translate(305.150912, 106.241305)"><g><path d="M 43.355469 -63.640625 L 43.355469 -20.683594 L 18.617188 -63.640625 L 5.570312 -63.640625 L 5.570312 0 L 17.5 0 L 17.5 -39.855469 L 40.414062 0 L 55.289062 0 L 55.289062 -63.640625 Z M 43.355469 -63.640625 "/></g></g></g><g fill="#5ce1e6" fill-opacity="1"><g transform="translate(366.005191, 106.241305)"><g><path d="M 5.570312 -63.640625 L 17.5 -63.640625 L 17.5 -0.238281 L 5.570312 -0.238281 Z M 5.570312 -63.640625 "/></g></g></g><g fill="#5ce1e6" fill-opacity="1"><g transform="translate(389.07413, 106.241305)"><g><path d="M 58.550781 -63.640625 L 45.503906 -63.640625 L 32.058594 -31.582031 L 18.695312 -63.640625 L 5.570312 -63.640625 L 5.570312 0 L 17.5 0 L 17.5 -35.164062 L 25.535156 -15.988281 L 38.582031 -15.988281 L 46.699219 -35.320312 L 46.699219 0 L 58.550781 0 Z M 58.550781 -63.640625 "/></g></g></g><g fill="#5ce1e6" fill-opacity="1"><g transform="translate(453.189883, 106.241305)"><g><path d="M 42.480469 -51.867188 L 42.480469 -63.722656 L 5.570312 -63.722656 L 5.570312 0 L 42.480469 0 L 42.480469 -11.851562 L 17.5 -11.851562 L 17.5 -26.015625 L 32.378906 -26.015625 L 32.378906 -37.867188 L 17.5 -37.867188 L 17.5 -51.867188 Z M 42.480469 -51.867188 "/></g></g></g></svg>